<?xml version="1.0" encoding="utf-8"?>
<!-- Generator: Adobe Illustrator 23.0.6, SVG Export Plug-In . SVG Version: 6.00 Build 0)  -->
<svg version="1.1" id="Layer_1" xmlns="http://www.w3.org/2000/svg" xmlns:xlink="http://www.w3.org/1999/xlink" x="0px" y="0px"
	 viewBox="0 0 864 864" enable-background="new 0 0 864 864" xml:space="preserve">
<g>
	<path d="M110.6953,611.0742c-23.9165,0-47.6416,11.102-65.0931,30.4586c-19.4837,21.612-28.4699,50.303-25.3045,80.7891L18,722.561
		h16.4192c-0.5482-3.647-0.8375-7.3771-0.8375-11.1745c0-41.274,33.5793-74.854,74.8537-74.854
		c41.2744,0,74.8528,33.58,74.8528,74.854c0,3.8006-0.2893,7.5345-0.8387,11.1845l61.2571,0.0432
		C222.8933,655.4008,160.1292,611.0742,110.6953,611.0742z"/>
	<path d="M416.5359,413.8434l-0.0951,0.0045l-0.0962-0.0028c-0.1342-0.0042-13.5593-0.4208-28.4277-0.262l-2.3364,0.0248
		c-26.3819,0.3774-60.8285,2.5158-80.1167,10.3289c-11.4093,4.6207-20.8252,12.4568-26.5135,22.0647
		c-9.1807,15.5028-10.4738,35.337-10.9653,52.711c-1.6492,51.4493-2.2945,188.002-2.3891,204.9502h159.0363
		c-0.0114-20.3953-0.0872-201.4095,0.0011-275.4184v-2.2345c0.0062-3.4922-0.9007-8.0898-3.4663-10.5311
		C419.9108,414.2825,418.4074,413.7508,416.5359,413.8434z M414.723,511.3533c-0.0172,6.858-9.0735,9.4084-16.9097,9.3947
		l-107.4965,0.4903c-7.8361-0.0128-12.232-8.03-10.7364-14.7623c0,0,0.5948-35.9796,8.5894-49.6062
		c6.1832-10.5394,16.4226-18.7231,28.1826-23.4862c21.1612-7.147,50.2205-8.5146,68.9787-8.5889l0.0386-0.0244
		c11.2563-0.0444,18.7885,0.4023,18.7885,0.4023c7.823-0.4023,10.7529,7.9044,10.7366,14.7628L414.723,511.3533z"/>
	<path d="M660.3465,611.0742c-23.9167,0-47.642,11.102-65.0934,30.4586c-19.4835,21.612-28.47,50.303-25.3044,80.7891
		l-4.3448,0.4521h25.2518c-0.5693-3.7138-0.8649-7.5169-0.8649-11.3875c0-41.274,33.5792-74.854,74.8534-74.854
		c41.2743,0,74.8539,33.58,74.8539,74.854c0,3.8706-0.2958,7.6737-0.865,11.3875h30.7134h23.8605
		C772.6436,655.4705,709.819,611.0742,660.3465,611.0742z"/>
	<path d="M452.9458,527.4925c-0.0027-36.1174,0.0054-72.2388,0.0502-108.4144c0.0128-9.4549-3.4452-20.9541-12.8837-20.3987
		c0,0-14.0149-0.7776-33.6855-0.6713l0.0014,0.0043c-32.784,0.1777-81.5059,2.7384-108.5702,15.1646
		c-14.2082,6.5237-27.0094,18.4031-34.0878,32.3431c-9.9243,19.5468-12.1564,56.2755-12.615,79.0451
		c-54.9057,3.6104-112.152,11.3674-146.4181,27.1094c-7.0924,3.2589-13.468,8.294-18.8745,14.2306
		c-0.9399-0.2328-1.991-0.4856-3.126-0.7463c3.968,8.882,10.2018,27.8256,0.2726,45.9707
		c8.9767-3.0661,18.3151-4.6788,27.6888-4.6788c51.4561,0,116.8369,46.2222,137.8477,116.1669l8.7827,0.0065v0.1337h149.3683
		h42.6413v0.0161h2.3523V543.4076h374.5853v4.6232H456.3137V722.774h109.0342c-3.2949-31.7968,6.1052-61.7463,26.4709-84.3362
		c18.3268-20.3285,43.305-31.987,68.5299-31.987c51.4946,0,116.9362,46.2904,137.8962,116.3232h21.3586
		c7.5728-1.7119,13.4773-7.8012,15.0308-15.4335V561.7289h0.2745v-25.3542c2.5417-1.6075,3.264-8.8822,3.264-8.8822H452.9458z
		 M260.949,708.2859l0.0111-2.3229c0.0064-1.1942,0.6136-151.5531,2.4035-207.3898c0.5454-19.2635,2.3288-39.2575,11.6087-54.9275
		c6.2013-10.4742,16.4139-18.9955,28.7553-23.9936c20.5335-8.3176,57.089-10.4079,84.1398-10.6967l2.3362-0.0251v0.0093
		c13.3733-0.0934,25.0429,0.2469,26.1947,0.2816c3.0785-0.1275,5.8158,0.8712,7.956,2.9081
		c3.0808,2.9311,4.9131,8.1224,4.9026,13.8851v2.2325c-0.0953,79.1269-0.0011,276.0648,0,277.7264l0.0011,2.3126H260.949z"/>
	<path d="M42.168,638.4377c9.801-10.8716,21.5056-19.2607,34.1321-24.7155c10.3152-19.1915,1.8463-43.8094-0.5889-50.0208
		c-10.1638-1.8615-22.9882-3.0619-30.4082,0.8471c-3.8814,3.5778-6.6371,44.3442-6.6371,55.1609
		c0,7.479,1.321,14.2005,3.4176,18.8249C42.1121,638.5023,42.1394,638.4697,42.168,638.4377z"/>
	<path d="M108.4349,641.1559c-38.7247,0-70.23,31.505-70.23,70.2306c0,38.7245,31.5053,70.2298,70.23,70.2298
		s70.23-31.5052,70.23-70.2298C178.6649,672.6609,147.1596,641.1559,108.4349,641.1559z M105.41,735.0529
		c-12.4817,0-22.6004-10.1188-22.6004-22.6005c0-12.4821,10.1186-22.6006,22.6004-22.6006
		c12.4822,0,22.6006,10.1185,22.6006,22.6006C128.0106,724.934,117.8922,735.0529,105.41,735.0529z"/>
	<path d="M664.8441,641.1559c-38.725,0-70.2302,31.505-70.2302,70.2306c0,38.7245,31.5052,70.2298,70.2302,70.2298
		c38.7252,0,70.2303-31.5052,70.2303-70.2298C735.0745,672.6609,703.5693,641.1559,664.8441,641.1559z M663.7776,735.0529
		c-12.4821,0-22.6007-10.1188-22.6007-22.6005c0-12.4821,10.1187-22.6006,22.6007-22.6006c12.482,0,22.6006,10.1185,22.6006,22.6006
		C686.3783,724.934,676.2596,735.0529,663.7776,735.0529z"/>
	<path d="M779.5641,83.5529c-4.8039-0.8263-9.5811-1.2042-14.2894-1.1666c21.826,15.7417,34.0317,43.036,29.1625,71.3433
		c-6.8079,39.5772-44.4105,66.1419-83.9877,59.334c-2.6312-0.4526-5.2029-1.0453-7.7133-1.7617
		c11.8152,15.2876,29.1675,26.3658,49.71,29.8994c43.5334,7.4884,84.8948-21.7319,92.3832-65.2653
		S823.0975,91.0413,779.5641,83.5529z"/>
	<g>
		<path d="M646.4889,370.4839c-0.3147-0.2349-0.5882-0.4316-0.8235-0.5882c-0.5496,0-0.8235,0.274-0.8235,0.8231
			c0,1.883-0.3348,3.4709-1.0002,4.7647c-0.667,1.2948-1.5879,2.3528-2.7643,3.1768c-1.1763,0.8231-2.5294,1.4112-4.0591,1.7646
			c-1.5292,0.3533-3.1577,0.529-4.8821,0.529c-5.4904,0-10.1171-1.1964-13.8816-3.5873c-3.7645-2.3939-6.864-5.5295-9.294-9.412
			c-2.4315-3.8824-4.2939-8.3139-5.5878-13.2934c-1.2943-4.9795-2.2167-10.0182-2.7648-15.1171
			c1.5679-1.0188,2.8822-2.2534,3.9412-3.7058c1.0589-1.4504,1.5879-3.1557,1.5879-5.117c0-1.8037-0.5696-3.4117-1.7058-4.8239
			c-1.1378-1.4112-2.6082-2.5876-4.4114-3.5291c0-3.2149,0.1174-6.195,0.3528-8.9412c0.2354-3.5291,0.5882-7.3914,1.059-11.588
			c0.4707-4.1946,1.0589-8.4293,1.7645-12.7052c0.7061-4.2739,1.5292-8.3911,2.4707-12.3519
			c0.941-3.9597,2.0385-7.4888,3.2937-10.5883c1.2537-3.0975,2.6654-5.5677,4.2352-7.4115
			c1.5678-1.8418,3.3329-2.7643,5.2942-2.7643c2.1946,0,3.3123-0.3533,3.3524-1.0589c0.0386-0.7056-0.8436-1.0589-2.6469-1.0589
			c-2.9022,0-5.5109,0.9023-7.823,2.706c-2.3146,1.8047-4.3527,4.2347-6.1177,7.2941c-1.7646,3.0583-3.2938,6.5875-4.5881,10.5873
			c-1.2938,3.9999-2.4114,8.1764-3.3524,12.5295c-0.9415,4.3522-1.6878,8.7635-2.2353,13.2342
			c-0.5496,4.4706-0.9817,8.6672-1.2943,12.5877c-0.1581,1.0991-0.2555,2.2353-0.2941,3.4117
			c-0.0402,1.1764-0.0994,2.3939-0.1761,3.6476c-2.2759-0.6273-4.5112-1.0589-6.7059-1.2948
			c-2.1967-0.2349-3.9999-0.3523-5.4116-0.3523c-0.7056,0-1.4318,0.0201-2.1761,0.0582c-0.7463,0.0411-1.5111,0.0994-2.294,0.1766
			c-0.0793-3.2942-0.1967-6.5674-0.3533-9.8235c-0.1581-3.2531-0.2354-6.5292-0.2354-9.8225c0-4.6272,0.1952-9.3919,0.5887-14.2941
			c0.3914-4.9002,1.097-9.6258,2.1174-14.1757c1.4117-0.3914,2.8235-0.9796,4.2352-1.7646
			c1.4117-0.7829,2.6654-1.7445,3.7645-2.8827c1.0976-1.1352,1.9799-2.4109,2.6469-3.8232
			c0.6655-1.4113,0.9595-2.9008,0.8823-4.4706c-0.0788-1.5678-0.5696-2.8616-1.4705-3.8824
			c-0.9023-1.0178-2.1379-1.5287-3.7057-1.5287c-2.3528,0-4.2754,0.6464-5.7644,1.9412c-1.4905,1.2938-2.7056,2.8436-3.6471,4.6462
			c-0.941,1.8057-1.6873,3.7058-2.2353,5.7062c-0.5496,1.9994-1.0198,3.7057-1.4117,5.117
			c-2.5881,0.6293-5.393,1.3932-8.4113,2.2945c-3.0202,0.9023-6.0585,1.9412-9.1173,3.1176
			c-3.0589,1.1764-5.9998,2.5695-8.8233,4.1765c-2.8235,1.608-5.3524,3.4317-7.5876,5.4703
			c-2.2354,2.0396-4.0204,4.3722-5.3529,6.999c-1.3345,2.6288-2.0386,5.5496-2.1174,8.7646c0,2.1971,0.3328,4.3531,0.9997,6.471
			c0.6655,2.1169,1.7059,3.9998,3.1176,5.646c1.4117,1.6471,3.1562,2.962,5.2349,3.9416c2.0772,0.9817,4.4892,1.4705,7.2354,1.4705
			c1.9593,0,3.8418-0.4115,5.6465-1.2356c1.8032-0.8231,3.3916-1.9211,4.7647-3.2943c1.3711-1.3711,2.4501-2.959,3.235-4.7637
			c0.7834-1.8037,1.1764-3.6857,1.1764-5.647c0-1.9593-0.3929-3.8232-1.1764-5.5887c-0.7849-1.7646-1.8433-3.3123-3.1763-4.6462
			c-1.3345-1.333-2.8822-2.3718-4.6467-3.1176c-1.7646-0.7448-3.6672-1.1182-5.7057-1.1182c-0.7056,0-1.3143,0.1586-1.8232,0.4708
			c-0.5114,0.3141-0.8235,0.6675-0.9415,1.0589c-0.1175,0.3935-0.0402,0.7468,0.2354,1.0589
			c0.274,0.3141,0.8421,0.4707,1.7058,0.4707c0.4708,0,0.9596-0.1365,1.4705-0.4115c0.5094-0.274,1.1177-0.4125,1.8238-0.4125
			c1.2537,0,2.4888,0.3734,3.7057,1.1182c1.215,0.7458,2.2734,1.6672,3.1763,2.7643c0.9003,1.0991,1.6265,2.3347,2.1761,3.7057
			c0.548,1.3731,0.8235,2.6468,0.8235,3.8232c0,1.5698-0.3528,3.0794-1.0585,4.5298c-0.7061,1.4514-1.629,2.705-2.7647,3.764
			c-1.1378,1.0589-2.4521,1.9031-3.9412,2.5294c-1.4905,0.6293-2.9816,0.9415-4.4706,0.9415c-1.8047,0-3.373-0.3914-4.7055-1.1764
			c-1.3345-0.7829-2.4707-1.7836-3.4117-3.0002c-0.941-1.2145-1.6672-2.6267-2.1766-4.2347c-0.5109-1.607-0.805-3.236-0.8823-4.8821
			c-0.0788-2.8235,0.4507-5.392,1.5884-7.7056c1.1357-2.3126,2.6855-4.4305,4.6468-6.3526c1.9598-1.9211,4.1946-3.6275,6.7059-5.118
			c2.5089-1.4886,5.0768-2.8034,7.7056-3.9406c2.6268-1.1362,5.2148-2.1359,7.7643-3.0002
			c2.5475-0.8622,4.8029-1.5678,6.7641-2.1179c-0.7056,4.2357-1.1964,8.608-1.4705,13.1177
			c-0.2755,4.5108-0.4115,8.9221-0.4115,13.2342c0,2.5113,0.0587,5.5496,0.1761,9.1179c0.1179,3.5693,0.1766,7.4698,0.1766,11.7055
			c-4.7847,0.9405-9.6082,2.4521-14.4702,4.5288c-4.8636,2.0787-9.275,4.6472-13.2347,7.7056
			c-3.9612,3.0594-7.1761,6.6086-9.6468,10.6465c-2.4702,4.041-3.7058,8.5297-3.7058,13.47c0,2.9008,0.4908,5.5295,1.471,7.8823
			c0.9796,2.3528,2.3326,4.3532,4.0585,6.0003c1.7239,1.6471,3.7831,2.9208,6.176,3.8232c2.3919,0.9004,5.0001,1.353,7.8235,1.353
			c4.1559,0,7.7443-0.9023,10.764-2.7061c3.0187-1.8047,5.5682-4.1966,7.6469-7.1766c2.0772-2.9811,3.7645-6.3928,5.0588-10.234
			c1.2938-3.8423,2.294-7.7448,2.9996-11.7055c0.7061-3.9597,1.1764-7.8421,1.4117-11.6473
			c0.2354-3.8031,0.3533-7.1947,0.3533-10.1758v-0.7056c0.941-0.0773,1.8619-0.1184,2.7643-0.1184c0.9008,0,1.7831,0,2.6468,0
			c1.3329,0.0793,3.0187,0.2178,5.0588,0.4125c2.0386,0.1967,4.0771,0.5691,6.1177,1.1172
			c-0.0793,2.9028-0.0592,5.8818,0.0587,8.9412c0.1174,3.0584,0.3714,6.1579,0.7643,9.2935c-1.0991,0.2349-2.04,0.3533-2.823,0.3533
			c-1.491,0-2.6874-0.2158-3.5883-0.6474c-0.9023-0.4306-1.6285-0.9214-2.1766-1.4705c-0.5496-0.548-0.9611-1.0589-1.2351-1.5297
			c-0.2755-0.4708-0.5294-0.7438-0.7648-0.8231c-0.3929-0.1566-0.687-0.1174-0.8823,0.1174
			c-0.1967,0.2349-0.2941,0.4707-0.2941,0.7056c0,0.9415,0.2941,1.7646,0.8823,2.4712c0.5882,0.7056,1.2943,1.3139,2.1179,1.8228
			c0.8235,0.5109,1.7058,0.8823,2.6469,1.1181c0.941,0.2349,1.7645,0.3523,2.4706,0.3523c0.6268,0,1.2737-0.0381,1.9407-0.1174
			c0.6655-0.0773,1.3129-0.1947,1.9412-0.3533c0.7834,5.3348,2.0385,10.491,3.7645,15.4705c1.7244,4.9795,4.0591,9.3909,7,13.2352
			c2.9409,3.8413,6.5473,6.9207,10.8232,9.2343c4.2739,2.3126,9.4295,3.4709,15.47,3.4709c1.8824,0,3.7444-0.256,5.5877-0.7649
			c1.8423-0.5109,3.489-1.2556,4.9414-2.2353c1.4504-0.9817,2.6468-2.2353,3.5878-3.764c0.9415-1.5297,1.4117-3.3535,1.4117-5.4703
			C646.9592,370.9927,646.801,370.7187,646.4889,370.4839z M580.3734,264.6638c0.3914-1.2145,0.8823-2.3909,1.4705-3.5291
			c0.5887-1.1352,1.2742-2.136,2.0591-2.9991c0.7829-0.8622,1.6064-1.2948,2.4702-1.2948c0.548,0,0.9415,0.1767,1.1764,0.53
			c0.2354,0.3523,0.3533,0.7649,0.3533,1.2346c0,0.9415-0.2761,1.883-0.8236,2.8235c-0.5495,0.9415-1.2556,1.8238-2.1179,2.6469
			c-0.8637,0.8241-1.7846,1.5297-2.7642,2.1179c-0.9817,0.5882-1.864,1.0409-2.6473,1.353
			C579.7064,266.8409,579.9799,265.8813,580.3734,264.6638z M569.1973,338.8965c-0.5496,5.923-1.6285,11.2939-3.235,16.1179
			c-1.6085,4.8229-3.8824,8.7826-6.8234,11.8811c-2.9409,3.0975-6.8434,4.6473-11.7055,4.6473
			c-2.3527,0-4.4706-0.4316-6.3525-1.2938c-1.8825-0.8642-3.4704-2.0586-4.7647-3.5883c-1.2938-1.5297-2.294-3.3344-2.9996-5.4121
			c-0.7061-2.0787-1.059-4.2939-1.059-6.6467c0-4.3913,1.1357-8.4113,3.4117-12.0578c2.2739-3.6476,5.2148-6.8825,8.8232-9.7061
			c3.6064-2.8235,7.665-5.1943,12.1757-7.1174c4.5093-1.9201,8.9593-3.3123,13.3526-4.1765
			C570.0209,327.191,569.7454,332.9765,569.1973,338.8965z M600.0198,330.662c-0.0788-2.0777-0.1175-4.1364-0.1175-6.1759
			c1.2537,0.7849,2.2534,1.7254,2.9997,2.8235c0.7448,1.0991,1.1176,2.3527,1.1176,3.764c0,1.1764-0.3347,2.2554-0.9997,3.235
			c-0.6675,0.9816-1.5497,1.903-2.6473,2.7653C600.2145,334.8786,600.0971,332.7407,600.0198,330.662z"/>
		<path d="M753.7759,340.6029c-0.5496-2.6659-1.726-5.3328-3.5291-7.9997c-1.8052-2.6659-3.8237-5.2354-6.059-7.7056
			c-2.2348-2.4702-4.4907-4.862-6.7641-7.1766c-2.276-2.3126-4.158-4.4887-5.647-6.5293c0.6268-2.1169,1.1763-4.4696,1.6471-7.0582
			c0.4703-2.5886,0.7056-4.9795,0.7056-7.1767c0-1.0178-0.1581-2.1359-0.4703-3.3524c-0.3146-1.2145-1.1382-1.8238-2.4706-1.8238
			c-1.1764,0-2.1967,0.3734-3.0589,1.1181c-0.8637,0.7458-1.5879,1.6471-2.176,2.7061c-0.5887,1.0579-1.0203,2.1761-1.2943,3.3524
			c-0.2756,1.1764-0.4116,2.2353-0.4116,3.1758c0,2.1971,0.4301,4.2759,1.2938,6.2351c0.8622,1.9613,1.9598,3.8443,3.2943,5.647
			c-0.2354,0.9415-0.5496,2.2353-0.9415,3.8824c-0.3929,1.6471-0.805,3.3524-1.2351,5.118
			c-0.103,0.4206-0.1915,0.8175-0.2877,1.2271c-0.0015,0.0027-0.0034,0.0045-0.0048,0.0075
			c-0.2354,0.7849-0.6474,2.0787-1.2356,3.8824c-0.3704,1.1365-0.7929,2.3681-1.2566,3.6749
			c-0.8404,0.2549-1.659,0.5919-2.4502,1.0305c-2.0386,1.0991-3.6656,2.5114-4.8821,4.2357
			c-1.215,1.7254-2.0591,3.5873-2.5294,5.5877c-0.4708,1.9995-0.6268,4.0591-0.4708,6.176
			c0.1041,1.3944,0.3381,2.7517,0.6791,4.0781c-0.905,1.1197-1.7584,1.6863-2.5601,1.6863c-0.7056,0-1.2351-0.4376-1.5879-1.3159
			c-0.3533-0.8783-0.5882-2.0145-0.7061-3.4117c-0.1174-1.3972-0.1581-2.8988-0.1174-4.5067
			c0.0386-1.607,0.1174-3.1567,0.2354-4.6472c0.1174-1.4885,0.2349-2.8034,0.3528-3.9406c0.1174-1.1362,0.2148-1.9011,0.2941-2.2945
			c0.2354-1.9593,0.4888-3.9798,0.7648-6.0585c0.2735-2.0767,0.5676-4.1364,0.8823-6.1759
			c0.3122-2.0386,0.6469-3.9798,0.9997-5.8236c0.3528-1.8418,0.6855-3.5471,1.0002-5.117c0.1561-0.8622-0.1967-1.353-1.059-1.4714
			c-0.8637-0.1175-1.6471-0.1757-2.3527-0.1757c-0.8642,0-1.5497,0.0994-2.0587,0.2941c-0.5114,0.1967-0.9229,0.7648-1.2356,1.7053
			c-0.3141,1.0208-0.7643,2.6288-1.353,4.8239c-0.5881,2.1962-1.2938,4.6282-2.1173,7.2931
			c-0.8236,2.6679-1.726,5.4322-2.7056,8.2938c-0.9816,2.8647-2.0591,5.4703-3.2355,7.8241
			c-1.1763,2.3527-2.3934,4.2749-3.6465,5.7644c-1.2557,1.4905-2.55,2.2353-3.8824,2.2353c-0.6288,0-1.1177-0.4898-1.4705-1.4674
			c-0.3528-0.9776-0.6088-2.1118-0.7649-3.4026c-0.1581-1.2898-0.2554-2.5414-0.2941-3.7549
			c-0.0402-1.2135-0.0587-2.0145-0.0587-2.4059c0-2.425,0.0773-5.0849,0.2354-7.9796c0.1561-2.8937,0.3915-5.8066,0.7056-8.7404
			c0.3127-2.9339,0.6655-5.8277,1.059-8.6833c0.3914-2.8556,0.8235-5.4944,1.2938-7.9214c0.1566-0.8602-0.0402-1.3691-0.5882-1.5257
			c-0.5496-0.1556-1.2166-0.2349-1.9999-0.2349c-0.941,0-1.6672,0.1375-2.1761,0.4115c-0.5109,0.276-0.9229,0.8441-1.2356,1.7064
			c-0.5496,1.8047-1.0198,4.1755-1.4117,7.1174c-0.3929,2.9409-0.7056,5.9993-0.941,9.1761
			c-0.1473,1.9879-0.2632,3.9344-0.3644,5.8613c-0.3145,1.0288-0.6786,2.2361-1.1046,3.6671
			c-0.6669,2.2353-1.4518,4.6874-2.3527,7.3533c-0.9023,2.6669-1.9226,5.3519-3.0588,8.0579
			c-1.1378,2.7061-2.3527,5.1762-3.647,7.4115c-1.2938,2.2353-2.7056,4.0591-4.2347,5.4703
			c-1.5297,1.4123-3.1176,2.1179-4.7647,2.1179c-1.8825,0-3.373-0.9616-4.4706-2.8827c-1.0991-1.9201-1.9026-4.1353-2.4115-6.6467
			c-0.5109-2.5083-0.8235-5.0377-0.941-7.5872c-0.1179-2.5485-0.1766-4.4505-0.1766-5.7062c0-1.1764,0.0587-2.7643,0.1766-4.7647
			c0.1174-1.9995,0.3122-4.1765,0.5882-6.5293c0.2735-2.3527,0.6855-4.7235,1.2351-7.1174c0.5475-2.3909,1.235-4.568,2.0586-6.5292
			c0.8236-1.9593,1.8238-3.5673,3.0002-4.8229c1.1763-1.2537,2.5474-1.882,4.1173-1.882c1.4117,0,2.706,0.5882,3.8824,1.7646
			c1.1764,1.1764,1.7646,2.4702,1.7646,3.8824c0,0.9405-0.2354,1.6672-0.7062,2.1761c-0.4702,0.5109-0.9811,0.9024-1.5292,1.1764
			c-0.5495,0.276-1.0589,0.529-1.5292,0.7648c-0.4707,0.2349-0.7061,0.5882-0.7061,1.0589c0,0.3935,0.1766,0.7056,0.5295,0.9405
			c0.3528,0.2359,0.7242,0.3533,1.1177,0.3533c0.7056,0,1.371-0.2148,1.9999-0.6474c0.6268-0.4296,1.1563-0.9596,1.5884-1.5879
			c0.4301-0.6273,0.7829-1.3329,1.0584-2.1179c0.274-0.7829,0.412-1.4885,0.412-2.1169c0-1.1774-0.2761-2.2544-0.8235-3.236
			c-0.5496-0.9796-1.2557-1.8027-2.1179-2.4702c-0.8637-0.6655-1.8433-1.1764-2.9409-1.5297
			c-1.0991-0.3523-2.1967-0.529-3.2937-0.529c-3.5296,0-6.4118,1.079-8.6472,3.235c-2.2353,2.158-3.9813,4.7848-5.2349,7.8823
			c-1.2557,3.0995-2.0973,6.3927-2.5294,9.8817c-0.3265,2.6504-0.5287,5.0603-0.6078,7.2354
			c-0.3529,0.6379-0.7114,1.2712-1.0975,1.8825c-0.9415,1.4905-1.9818,2.8436-3.1176,4.0581
			c-1.1378,1.2175-2.3347,2.1771-3.5883,2.8827c0.3126-1.8037,0.5295-3.6265,0.6469-5.4703
			c0.1179-1.8418,0.1766-3.6656,0.1766-5.4703c0-1.3329-0.0607-3.1567-0.1782-5.4703c-0.1179-2.3126-0.4542-4.6071-1.0073-6.8826
			c-0.5535-2.2734-1.4027-4.2347-2.5479-5.8818c-1.1453-1.6471-2.704-2.4712-4.6779-2.4712c-1.3005,0-2.4159,0.338-3.3525,1.0015
			c-0.0002-0.0002-0.0002-0.0005-0.0004-0.0007c-0.2354-0.3533-0.6288-0.6855-1.1763-1.0007
			c-0.5496-0.3122-1.1583-0.547-1.8238-0.7056c-0.667-0.1556-1.2758-0.1556-1.8232,0c-1.9613,0.55-3.7058,2.0004-5.235,4.3532
			c-1.5297,2.3527-2.8054,5.117-3.8237,8.2938c-1.0183,3.1758-1.8032,6.5293-2.3527,10.0583
			c-0.5475,3.5291-0.8236,6.8234-0.8236,9.8817c0,2.1179,0.2169,4.57,0.6489,7.3533c0.4356,2.7844,1.202,5.4111,2.3051,7.8813
			c1.1031,2.4712,2.5791,4.5479,4.43,6.2351c1.8494,1.6863,4.1931,2.5294,7.0291,2.5294c1.6547,0,3.1894-0.8642,4.6066-2.5876
			c1.4173-1.7264,2.6965-3.765,3.8398-6.1177c1.1417-2.3527,2.1068-4.7055,2.8953-7.0582c0.7869-2.3528,1.338-4.1946,1.6541-5.5295
			c1.491-0.6273,2.9615-1.6652,4.4139-3.1176c1.4244-1.4248,2.7541-3.0037,3.991-4.7318c0.0803,1.7113,0.2586,3.7349,0.5378,6.0848
			c0.3934,3.2942,1.1176,6.4901,2.1766,9.5876c1.0584,3.0995,2.5088,5.7443,4.3527,7.9415c1.8418,2.1942,4.176,3.2932,6.9995,3.2932
			c2.1951,0,4.2352-0.805,6.1177-2.4109c1.882-1.609,3.6265-3.6656,5.235-6.1769c1.6064-2.5093,3.0383-5.2535,4.2939-8.2346
			c1.2536-2.9801,2.3527-5.8818,3.2942-8.7053c0.3569-1.0705,0.6761-2.0887,0.9765-3.0804c-0.0234,1.0878-0.037,2.0862-0.037,2.962
			c0,1.2556,0.0386,2.7261,0.1174,4.4124c0.0773,1.6873,0.3528,3.3143,0.8235,4.8821c0.4708,1.5698,1.1764,2.9018,2.1174,3.9998
			c0.9415,1.0991,2.2739,1.6471,3.9999,1.6471c1.9598,0,3.8031-1.0188,5.5295-3.0594c1.7239-2.0386,3.2937-4.4495,4.7054-7.2349
			c1.4117-2.7833,2.6469-5.6269,3.7057-8.5287c1.059-2.9008,1.8619-5.2535,2.412-7.0592c-0.0793,0.7849-0.2554,2.1379-0.5295,4.0591
			c-0.276,1.9221-0.5109,4.0792-0.7061,6.47c-0.1967,2.3939-0.3141,4.8641-0.3528,7.4115c-0.0406,2.5495,0.136,4.8641,0.5294,6.9408
			c0.3915,2.0797,1.059,3.8051,1.9999,5.1762c0.941,1.3721,2.3126,2.0586,4.1173,2.0586c1.1763,0,2.3914-0.6082,3.647-1.8228
			c0.35-0.3393,0.6965-0.7131,1.0407-1.1074c0.7061,1.874,1.7448,3.7158,3.1343,5.5187c1.4519,1.882,3.217,3.489,5.2942,4.8229
			c2.0767,1.333,4.4114,2.3126,6.9995,2.9419c2.5881,0.6263,5.2941,0.7056,8.1171,0.2349c2.4301-0.4708,4.7446-1.5498,6.9413-3.235
			c2.1946-1.6873,4.0179-3.8051,5.4703-6.3526c1.4504-2.5485,2.4702-5.4121,3.0588-8.5879
			C754.5407,347.367,754.4815,344.0547,753.7759,340.6029z M635.1362,348.72c-0.5882,1.9613-1.3345,3.9025-2.2353,5.8236
			c-0.9023,1.9221-1.9412,3.6064-3.1176,5.0588c-1.1763,1.4494-2.4315,2.1761-3.7645,2.1761c-1.5698,0-2.8235-0.805-3.7645-2.412
			c-0.941-1.608-1.6472-3.4699-2.1174-5.5877c-0.4708-2.1179-0.7849-4.2357-0.9415-6.3526
			c-0.1581-2.1179-0.2354-3.6857-0.2354-4.7055c0-2.6659,0.1766-5.4713,0.5295-8.4122c0.3533-2.9409,0.9209-5.8226,1.7058-8.6461
			c0.7834-2.8235,1.8238-5.5295,3.1176-8.1182c0.3999-0.7995,0.8378-1.5538,1.2939-2.286c-0.034,0.0976-0.0755,0.1877-0.108,0.2866
			c-0.5922,1.8047-0.9872,3.6877-1.1839,5.647c-0.1988,1.9613-0.2961,3.6084-0.2961,4.9403c0,2.1179,0.1767,4.2357,0.5295,6.3536
			c0.3528,2.1169,0.9796,4.04,1.8825,5.7644c0.9003,1.7254,2.156,3.1377,3.7645,4.2347c1.6064,1.0991,3.6651,1.6471,6.176,1.6471
			C636.1364,345.231,635.7244,346.7607,635.1362,348.72z M637.7831,336.073c-0.0788,1.8439-0.3142,3.6285-0.7056,5.3529
			l-1.059,0.1174c-1.5698,0-2.8436-0.6645-3.8232-1.9994c-0.9816-1.333-1.7259-2.9209-2.2353-4.7647
			c-0.5109-1.8418-0.8436-3.7057-1.0002-5.5877c-0.1581-1.882-0.2349-3.4117-0.2349-4.588c0-0.6273,0.0386-1.627,0.1174-3.0002
			c0.0773-1.3711,0.274-2.7442,0.5882-4.1173c0.3127-1.3711,0.7648-2.5886,1.353-3.6476c0.5882-1.0579,1.4298-1.5879,2.5294-1.5879
			c1.0183,0,1.8419,0.824,2.4702,2.4712c0.6268,1.6461,1.0976,3.5291,1.4117,5.646c0.3126,2.1179,0.5094,4.1765,0.5882,6.1769
			c0.0773,1.9994,0.1179,3.3524,0.1179,4.0581C637.901,332.4084,637.8604,334.2312,637.7831,336.073z M728.0358,305.4272
			c-0.5661-1.4885-0.8472-2.9008-0.8472-4.2347c0-0.7056,0.0753-1.4705,0.2299-2.2945c0.1526-0.8231,0.3619-1.626,0.6304-2.4109
			c0.2665-0.7839,0.6102-1.4303,1.0313-1.9412c0.4211-0.5099,0.8989-0.7648,1.4353-0.7648c0.6103,0,0.9747,0.4115,1.0886,1.2356
			c0.114,0.8231,0.1727,1.5106,0.1727,2.0586c0,2.0396-0.1767,4.0782-0.5295,6.1167c-0.3528,2.0406-0.7262,4.0791-1.1177,6.1177
			C729.299,308.2126,728.6019,306.9178,728.0358,305.4272z M716.0126,343.8379c0.3935-1.7646,1.1378-3.4498,2.2354-5.0588
			c1.039-1.5181,2.5478-2.8022,4.4967-3.8673c-0.748,2.0187-1.5358,4.1047-2.3779,6.2793c-0.9415,2.432-1.9226,4.6282-2.9414,6.5875
			c-0.5126,0.9857-1.0201,1.8865-1.5227,2.7036c-0.0703-0.4386-0.1325-0.8878-0.1841-1.3505
			C715.5233,347.367,715.6212,345.6024,716.0126,343.8379z M746.8938,351.0728c-0.4321,2.3527-1.1583,4.5298-2.1766,6.5292
			c-1.0203,2.0004-2.3728,3.7058-4.0586,5.117c-1.6873,1.4123-3.7464,2.3126-6.1765,2.7061
			c-1.9612,0.3132-3.8819,0.2148-5.7644-0.2941c-1.882-0.5109-3.6285-1.3139-5.2349-2.412
			c-1.6064-1.0991-3.0001-2.4109-4.1765-3.9406c-1.1764-1.5297-2.0386-3.1557-2.5881-4.8821
			c-0.0768-0.2306-0.1442-0.4738-0.2137-0.7137c0.3493-0.4998,0.6962-1.0203,1.0388-1.5799
			c1.1764-1.9211,2.3327-4.1183,3.4704-6.5885c1.1362-2.4702,2.156-4.9594,3.0588-7.4707c0.4423-1.2321,0.8552-2.4398,1.2416-3.6255
			c0.3261-0.0645,0.6557-0.1149,0.9922-0.1385c1.1357-0.0773,2.2147,0.0582,3.235,0.4115c1.0183,0.3533,1.9412,0.8642,2.7648,1.5297
			c0.8236,0.6675,1.4298,1.5106,1.8233,2.5294c0.2354,0.8632,0.2941,1.6873,0.1766,2.4702
			c-0.1179,0.7849-0.0587,1.4524,0.1761,2.0004c0.0773,0.2349,0.254,0.4517,0.5295,0.6464c0.274,0.1967,0.6068,0.2168,1.0002,0.0592
			c0.5475-0.3132,0.9209-0.7448,1.1176-1.2948c0.1948-0.547,0.3122-1.1553,0.3528-1.8228c0.0386-0.6655,0-1.2938-0.118-1.883
			c-0.1174-0.5882-0.2554-1.077-0.4115-1.4705c-0.5496-1.4113-1.4117-2.5675-2.5881-3.4699
			c-1.1763-0.9014-2.4907-1.5297-3.9411-1.882c-1.3727-0.334-2.7985-0.4128-4.2753-0.2565
			c0.1658-0.3699,0.3548-0.8868,0.5695-1.5673c0.4708-1.4895,0.9797-3.1768,1.5297-5.0588c0.5475-1.882,1.0383-3.6656,1.4705-5.3529
			c0.4301-1.6853,0.6855-2.7643,0.7643-3.235c1.3329,1.9613,2.9414,3.9998,4.8234,6.1177c1.8824,2.1169,3.6857,4.3341,5.4116,6.6467
			c1.7244,2.3136,3.215,4.7256,4.4706,7.2349c1.2536,2.5113,1.9999,5.1381,2.2353,7.8823
			C747.5005,346.3673,747.3239,348.72,746.8938,351.0728z"/>
	</g>
	<g>
		<path d="M684.1442,424.9682c0-2.2453-0.2479-4.9183-0.7402-8.0208c-0.4938-3.0995-1.3249-6.0204-2.4897-8.7625
			c-1.1674-2.7402-2.7592-5.0769-4.7778-7.009c-2.019-1.9332-4.5554-2.8998-7.6047-2.8998c-3.9492,0-7.6042,1.3008-10.9687,3.9025
			c-3.3651,2.6037-6.3491,5.8547-8.9503,9.7582c-2.6037,3.9025-4.7567,8.1212-6.4605,12.651
			c-1.7053,4.5318-2.8727,8.7716-3.499,12.7192c0-4.577,0.2228-9.3758,0.673-14.4015c0.4476-5.0237,1.211-9.8255,2.288-14.4015
			c1.5247-0.538,3.0724-1.2547,4.6432-2.153c1.5688-0.8963,2.9821-1.9954,4.2393-3.2972c1.2557-1.2998,2.265-2.7281,3.0287-4.2819
			c0.7609-1.5518,1.0976-3.2029,1.0093-4.9484c-0.0903-1.3962-0.5847-2.6197-1.4846-3.6676
			c-0.9003-1.0469-2.2021-1.5708-3.9095-1.5708c-2.2484,0-4.2041,0.6735-5.8673,2.0165c-1.6636,1.344-3.1251,3.0242-4.3828,5.0387
			c-1.2597,2.0145-2.294,4.1434-3.1015,6.3807c-0.8101,2.2393-1.4389,4.2106-1.8885,5.9109
			c-4.6774,1.2557-9.6885,2.959-15.0383,5.109c-5.3499,2.149-10.2712,4.859-14.7668,8.1272
			c-4.4962,3.2701-8.2502,7.1004-11.2614,11.4887c-3.0117,4.3893-4.5173,9.4049-4.5173,15.0469c0,2.7783,0.4266,5.375,1.2828,7.7939
			c0.8557,2.418,2.0943,4.5228,3.7158,6.3145s3.6024,3.2029,5.9451,4.2337c2.3427,1.0298,5.0452,1.5438,8.1091,1.5438
			c2.431,0,4.6833-0.4718,6.7566-1.4133c2.0717-0.9425,3.8508-2.2423,5.3373-3.9035c1.485-1.6591,2.6539-3.5873,3.5081-5.7875
			c0.8536-2.1972,1.2808-4.5529,1.2808-7.0652c0-4.3953-1.3967-7.9857-4.1851-10.768c-2.7908-2.7793-6.2582-4.4415-10.4011-4.9795
			c-1.5312-0.1786-2.6794-0.1114-3.4448,0.2018c-0.7653,0.3152-1.2175,0.6735-1.352,1.077
			c-0.135,0.4035,0.0231,0.7869,0.4728,1.1443c0.4501,0.3593,1.1271,0.4938,2.0275,0.4035
			c0.4501-0.0883,0.8767-0.1556,1.2827-0.2018c0.406-0.0442,1.0138-0.0673,1.8253-0.0673c1.4409,0,2.8601,0.3363,4.2563,1.0088
			c1.3967,0.6735,2.6353,1.5949,3.7163,2.7592c1.0805,1.1673,1.9578,2.5575,2.6348,4.1725c0.675,1.615,1.0138,3.3203,1.0138,5.114
			c0,1.7967-0.406,3.5-1.2175,5.115c-0.812,1.615-1.8719,3.0513-3.1798,4.307c-1.3083,1.2577-2.818,2.2433-4.5298,2.961
			c-1.7119,0.7187-3.4257,1.076-5.1376,1.076c-2.166,0-4.1047-0.4246-5.8166-1.2777c-1.7139-0.8522-3.1567-1.9964-4.3281-3.4328
			c-1.1733-1.4343-2.0737-3.0724-2.7045-4.9122c-0.6309-1.8378-0.946-3.7007-0.946-5.5858c0-4.6643,1.3038-8.9944,3.9155-12.9872
			c2.6117-3.9919,5.8759-7.5581,9.7914-10.6997c3.9155-3.1407,8.1487-5.8086,12.6957-8.0088
			c4.5464-2.1972,8.7123-3.8794,12.4933-5.0468c-0.8075,4.1284-1.4127,8.5257-1.8167,13.19
			c-0.404,4.6663-0.6058,9.152-0.6058,13.459c0,5.114,0.1787,10.1607,0.5385,15.1412c0.3574,4.9795,0.5385,10.0262,0.5385,15.1412
			c0,2.8727-0.0908,6.0796-0.2695,9.6227c-0.1807,3.5462-0.5616,7.2007-1.1458,10.9687c-0.5847,3.769-1.4409,7.4256-2.566,10.9698
			c-1.1246,3.5432-2.6558,6.7059-4.5905,9.4882c-1.9347,2.7803-4.2985,5.0237-7.0869,6.729
			c-2.7908,1.7043-6.1659,2.5575-10.1261,2.5575c-5.5812,0-9.9028-1.6381-12.9626-4.9122
			c-3.0618-3.2762-4.5905-7.6504-4.5905-13.1227c0-2.2413,0.3157-4.3953,0.9465-6.46c0.6309-2.0627,1.6-3.9035,2.9083-5.5185
			c1.3079-1.615,2.8852-2.9148,4.7356-3.9025c1.8489-0.9867,3.9918-1.4805,6.4269-1.4805c1.2617,0,2.5464,0.1807,3.8548,0.538
			c1.3079,0.3593,2.5023,0.9214,3.5853,1.6823c1.081,0.7638,1.9603,1.6823,2.6373,2.7592c0.6771,1.077,1.0158,2.2875,1.0158,3.6335
			c0,1.2577-0.2695,2.2885-0.8075,3.0955c-0.5385,0.808-0.8075,1.4363-0.8075,1.885c0,0.4497,0.1556,0.807,0.4707,1.076
			c0.3137,0.27,0.6941,0.4045,1.1443,0.4045c1.3455,0,2.288-0.7408,2.826-2.2213c0.5385-1.4805,0.808-2.7592,0.808-3.8352
			c0-1.7947-0.4501-3.4097-1.346-4.846c-0.8983-1.4333-2.019-2.6679-3.365-3.7007c-1.346-1.0308-2.8727-1.8378-4.576-2.423
			c-1.7053-0.5822-3.3645-0.8743-4.9795-0.8743c-2.8727,0-5.4512,0.5611-7.7393,1.6823c-2.288,1.1232-4.2623,2.6478-5.922,4.576
			c-1.6611,1.9302-2.9374,4.1284-3.8357,6.5945c-0.8959,2.4691-1.3455,5.0477-1.3455,7.7387c0,3.231,0.5611,6.1689,1.6823,8.8157
			c1.1227,2.6458,2.6915,4.9133,4.7105,6.7972c2.019,1.884,4.3742,3.3645,7.0657,4.4415c2.692,1.077,5.6068,1.6151,8.7485,1.6151
			c5.5621,0,10.229-1.3019,13.9975-3.9035c3.7685-2.6037,6.864-5.9893,9.2865-10.1608c2.4225-4.1725,4.2397-8.8368,5.4507-13.998
			c1.2115-5.1581,2.0862-10.2501,2.6248-15.2757l2.826,0.1345c6.9086,0,13.0093-1.6612,18.3044-4.9885
			c5.2932-3.3243,9.7578-7.5932,13.3918-12.8065c3.6335-5.2114,6.3696-11.0089,8.21-17.3916
			C683.2233,437.3271,684.1442,431.0799,684.1442,424.9682z M643.162,402.5821c0.4918-1.345,1.0765-2.6679,1.7495-3.9698
			c0.673-1.2998,1.4343-2.4441,2.288-3.4317c0.8517-0.9867,1.8173-1.4805,2.8937-1.4805c0.5385,0,0.942,0.2018,1.2115,0.6053
			c0.269,0.4035,0.4034,0.8752,0.4034,1.4132c0,1.077-0.3151,2.153-0.942,3.23c-0.6288,1.077-1.4363,2.0858-2.4225,3.0283
			c-0.9887,0.9425-2.0421,1.7495-3.1633,2.423c-1.1227,0.6725-2.1324,1.1432-3.0283,1.4132
			C642.3315,405.0051,642.6677,403.9281,643.162,402.5821z M675.194,434.615c-0.5847,4.037-1.5267,8.0308-2.826,11.9785
			c-1.3018,3.9487-2.9168,7.7177-4.8455,11.305c-1.9307,3.5903-4.2628,6.7531-6.9985,9.4883
			c-2.7382,2.7382-5.8548,4.9132-9.3542,6.5282c-3.499,1.615-7.4487,2.422-11.8435,2.422h-0.5385
			c0.1786-2.2413,0.3132-4.4174,0.4035-6.5272c0.0883-2.1068,0.135-4.1053,0.135-5.9893c0-2.2413-0.0467-4.4626-0.135-6.6617
			c-0.0903-2.1982-0.1807-4.4184-0.269-6.6628c0.8075,3.0513,2.2418,5.653,4.307,7.806c2.0631,2.154,4.9795,3.231,8.748,3.231
			c1.2556,0,2.4902-0.2469,3.7012-0.7408c1.2115-0.4918,2.2649-1.1442,3.1633-1.9512c0.8958-0.808,1.615-1.7937,2.153-2.961
			c0.5385-1.1653,0.7614-2.423,0.673-3.769c-0.1807-2.153-0.7864-3.7449-1.8168-4.7777c-1.0328-1.0298-2.0862-1.5477-3.1627-1.5477
			c-0.8075,0-1.2115,0.3593-1.2115,1.077c0,0.538,0.2228,0.9415,0.673,1.2115c0.4482,0.269,0.942,0.5842,1.4805,0.9415
			c0.5385,0.3604,1.0093,0.8542,1.4133,1.4805c0.4035,0.6293,0.5591,1.5708,0.4708,2.8265
			c-0.1807,1.7053-1.0554,3.1417-2.6243,4.307c-1.5708,1.1673-3.1627,1.7495-4.7777,1.7495c-2.1535,0-3.9938-0.4477-5.5185-1.346
			c-1.5267-0.8953-2.7588-2.0627-3.7013-3.499c-0.942-1.4343-1.615-3.0493-2.0185-4.845c-0.404-1.7937-0.6057-3.5883-0.6057-5.384
			c0-2.0627,0.3132-4.5529,0.942-7.4698c0.6268-2.9148,1.5016-5.922,2.6248-9.0175c1.1207-3.0955,2.4897-6.1679,4.1047-9.2192
			c1.6151-3.0493,3.4323-5.7875,5.4507-8.2095c2.019-2.423,4.1936-4.3742,6.5278-5.8547c2.3322-1.4805,4.7988-2.2213,7.4025-2.2213
			c1.9724,0,3.5201,0.8311,4.6432,2.4903c1.1207,1.6612,1.9959,3.6335,2.6248,5.922c0.6263,2.2875,1.0303,4.5991,1.211,6.9307
			c0.1786,2.3347,0.269,4.1725,0.269,5.5185C676.0687,426.7649,675.7767,430.577,675.194,434.615z"/>
		<path d="M842.4166,482.798c-0.6288-3.0493-1.9749-6.1006-4.038-9.152c-2.0651-3.0493-4.3737-5.9893-6.9312-8.8157
			c-2.557-2.8265-5.1376-5.5627-7.7388-8.2105c-2.6036-2.6448-4.7571-5.1351-6.4604-7.4697c0.7172-2.422,1.346-5.114,1.8845-8.075
			c0.538-2.961,0.8075-5.6971,0.8075-8.2095c0-1.1653-0.1812-2.4441-0.5385-3.8362c-0.3594-1.3902-1.3019-2.0858-2.8265-2.0858
			c-1.3455,0-2.5128,0.4266-3.499,1.2777c-0.9887,0.8542-1.8173,1.885-2.4902,3.0965c-0.6725,1.2105-1.1669,2.4893-1.4805,3.8352
			c-0.3152,1.346-0.4708,2.5575-0.4708,3.6335c0,2.5133,0.4918,4.8922,1.4805,7.1335c0.9861,2.2443,2.2418,4.3973,3.7685,6.461
			c-0.2695,1.076-0.6288,2.5565-1.077,4.4405c-0.4496,1.885-0.9209,3.8362-1.4132,5.8547
			c-0.1178,0.4815-0.2192,0.9357-0.3292,1.4045c-0.0016,0.0033-0.0039,0.0055-0.0056,0.0088
			c-0.269,0.8983-0.7402,2.3788-1.4127,4.4415c-0.4238,1.3008-0.9073,2.7095-1.4379,4.2046
			c-0.9615,0.2916-1.8982,0.677-2.8033,1.1794c-2.3326,1.2577-4.1935,2.8727-5.5858,4.845
			c-1.3901,1.9743-2.3552,4.1053-2.8937,6.3927c-0.538,2.2885-0.7172,4.6432-0.538,7.0663c0.119,1.5954,0.3865,3.1482,0.7768,4.6658
			c-1.0352,1.2802-2.0116,1.9286-2.9288,1.9286c-0.8075,0-1.4132-0.4998-1.8167-1.5056c-0.404-1.0047-0.673-2.3046-0.8075-3.9025
			c-0.135-1.5989-0.1812-3.3163-0.135-5.1571c0.0441-1.8378,0.135-3.6104,0.2695-5.3158c0.1345-1.7033,0.269-3.2069,0.4035-4.5087
			c0.1345-1.2998,0.2464-2.1751,0.3367-2.6248c0.269-2.2413,0.5591-4.5529,0.8748-6.9317c0.3132-2.3758,0.65-4.7316,1.0093-7.0652
			c0.3578-2.3327,0.7402-4.5529,1.1442-6.6628c0.4035-2.1068,0.7844-4.0581,1.1437-5.8547c0.1787-0.9857-0.2248-1.5478-1.211-1.6823
			c-0.9886-0.1345-1.8845-0.2018-2.692-0.2018c-0.9882,0-1.7726,0.1134-2.3553,0.3362c-0.5847,0.2258-1.0559,0.8752-1.4132,1.9523
			c-0.3594,1.1673-0.8748,3.0071-1.5478,5.5175c-0.673,2.5133-1.4805,5.2957-2.4225,8.345
			c-0.942,3.0514-1.9748,6.2141-3.0955,9.4883c-1.1232,3.2762-2.3553,6.2582-3.7013,8.9503
			c-1.3459,2.692-2.7382,4.8922-4.1725,6.5955c-1.4363,1.7053-2.9168,2.5565-4.4415,2.5565c-0.7192,0-1.2783-0.5591-1.6823-1.6782
			c-0.4035-1.1182-0.6961-2.416-0.8748-3.8925c-0.1807-1.4765-0.2926-2.9078-0.3367-4.296
			c-0.0462-1.3882-0.0673-2.3046-0.0673-2.7532c0-2.7733,0.0883-5.8166,0.2695-9.1289c0.1786-3.3093,0.4477-6.6427,0.8075-9.9991
			c0.3574-3.3564,0.7614-6.6667,1.211-9.9349c0.4482-3.2651,0.9425-6.2853,1.4805-9.0617c0.1791-0.9836-0.0462-1.5668-0.673-1.7455
			c-0.6283-0.1786-1.3917-0.269-2.288-0.269c-1.0765,0-1.9071,0.1576-2.4897,0.4717c-0.5847,0.3152-1.0554,0.9646-1.4133,1.9513
			c-0.6288,2.0647-1.1668,4.7777-1.615,8.1422c-0.4502,3.3645-0.8075,6.8645-1.0765,10.498
			c-0.1686,2.2744-0.3013,4.5009-0.417,6.7047c-0.3599,1.1779-0.7762,2.5595-1.2638,4.1968
			c-0.7633,2.5575-1.6616,5.3629-2.692,8.4122c-1.0323,3.0513-2.1997,6.1237-3.499,9.2192c-1.3018,3.0955-2.692,5.922-4.1725,8.4795
			c-1.4805,2.5575-3.0955,4.6432-4.845,6.2582c-1.75,1.615-3.5668,2.423-5.4513,2.423c-2.1535,0-3.8588-1.1001-5.1145-3.2982
			c-1.2571-2.1971-2.176-4.7316-2.7587-7.6042c-0.5847-2.8707-0.942-5.7634-1.077-8.6802
			c-0.1345-2.9148-0.2018-5.0919-0.2018-6.5282c0-1.346,0.0673-3.1628,0.2018-5.4503c0.1349-2.2885,0.3578-4.7787,0.673-7.4697
			c0.3137-2.692,0.7844-5.4051,1.4133-8.1432c0.6268-2.7362,1.4132-5.2254,2.3552-7.4698c0.9425-2.2413,2.0862-4.0811,3.4323-5.5175
			c1.346-1.4343,2.9149-2.154,4.7105-2.154c1.615,0,3.0955,0.6735,4.4415,2.0195c1.346,1.345,2.019,2.8255,2.019,4.4405
			c0,1.077-0.2695,1.9081-0.8075,2.4902c-0.5385,0.5852-1.1232,1.0328-1.75,1.346c-0.6288,0.3152-1.211,0.6053-1.7495,0.8752
			c-0.5385,0.269-0.8075,0.6725-0.8075,1.2105c0,0.4507,0.2017,0.808,0.6057,1.077c0.4035,0.269,0.8286,0.4035,1.2783,0.4035
			c0.8075,0,1.5688-0.2459,2.288-0.7397c0.7172-0.4919,1.3229-1.0981,1.8172-1.8168c0.4918-0.7177,0.8959-1.5247,1.211-2.423
			c0.3137-0.8953,0.4713-1.7033,0.4713-2.423c0-1.345-0.3151-2.5776-0.942-3.7007c-0.6288-1.1212-1.4363-2.0627-2.4225-2.8265
			c-0.9886-0.7608-2.1093-1.346-3.365-1.7495c-1.2576-0.4035-2.5128-0.6053-3.7685-0.6053c-4.0375,0-7.3352,1.2336-9.8922,3.7007
			c-2.557,2.4692-4.5549,5.4743-5.9893,9.0175c-1.4363,3.5452-2.3994,7.3142-2.8937,11.306
			c-0.3734,3.031-0.6048,5.7882-0.6955,8.2762c-0.4039,0.7297-0.8143,1.4544-1.2563,2.1535
			c-1.0765,1.7064-2.2669,3.2541-3.5662,4.6443c-1.3018,1.3922-2.6709,2.4893-4.1052,3.2972
			c0.3578-2.0637,0.6057-4.1494,0.7402-6.2582c0.1345-2.1078,0.2017-4.1936,0.2017-6.2592c0-1.5247-0.0692-3.6104-0.2037-6.2582
			c-0.1345-2.6448-0.5194-5.2696-1.1523-7.8732c-0.6334-2.6017-1.605-4.845-2.9148-6.729c-1.3104-1.885-3.0935-2.8265-5.3519-2.8265
			c-1.4875,0-2.7634,0.386-3.8349,1.1448c-0.0004-0.0005-0.0004-0.001-0.0008-0.0015c-0.2695-0.4035-0.7197-0.7839-1.346-1.1432
			c-0.6288-0.3573-1.325-0.6273-2.0862-0.808c-0.7634-0.1787-1.4594-0.1787-2.0862,0c-2.2438,0.6293-4.2393,2.2885-5.9893,4.9795
			c-1.7495,2.692-3.2089,5.8547-4.3743,9.4892c-1.1648,3.6335-2.0626,7.4698-2.6915,11.5067c-0.6268,4.038-0.942,7.807-0.942,11.306
			c0,2.423,0.2479,5.2274,0.7422,8.4122c0.4984,3.1858,1.3751,6.191,2.6368,9.0175c1.2622,2.8255,2.9505,5.2023,5.0684,7.1325
			c2.1154,1.9282,4.7968,2.8937,8.0419,2.8937c1.8925,0,3.6486-0.9887,5.2701-2.961c1.621-1.9743,3.085-4.307,4.3928-6.998
			c1.3058-2.692,2.41-5.384,3.3123-8.076c0.8998-2.692,1.5307-4.7988,1.8925-6.3255c1.7054-0.7167,3.3881-1.9051,5.0493-3.5663
			c1.6301-1.63,3.1514-3.4378,4.5664-5.4149c0.0919,1.9578,0.296,4.2736,0.6154,6.9626c0.4502,3.768,1.2787,7.4256,2.4897,10.9687
			c1.2115,3.5452,2.8707,6.5714,4.98,9.0847c2.1074,2.5113,4.7778,3.768,8.0082,3.768c2.5109,0,4.845-0.9204,6.9985-2.7582
			c2.1535-1.8409,4.1489-4.1936,5.9892-7.0663c1.8378-2.8707,3.4764-6.0103,4.9123-9.421c1.4343-3.4097,2.692-6.73,3.7685-9.96
			c0.4085-1.225,0.7742-2.3904,1.1179-3.5251c-0.0269,1.2454-0.0424,2.3884-0.0424,3.3906c0,1.4363,0.0441,3.1186,0.1345,5.0467
			c0.0883,1.9312,0.4035,3.7921,0.942,5.5858c0.5385,1.7957,1.346,3.3203,2.4225,4.576c1.077,1.2577,2.6017,1.884,4.576,1.884
			c2.2418,0,4.3512-1.1643,6.326-3.499c1.9724-2.3327,3.7685-5.0909,5.3835-8.2767c1.6151-3.1848,3.0283-6.4379,4.2398-9.7582
			c1.2109-3.3183,2.1299-6.0103,2.7587-8.075c-0.0903,0.8973-0.2921,2.4451-0.6058,4.6432
			c-0.3152,2.1992-0.5842,4.6664-0.8075,7.4025c-0.2249,2.7382-0.3593,5.5637-0.4035,8.4785
			c-0.0461,2.9168,0.1556,5.5647,0.6058,7.9415c0.4476,2.3778,1.211,4.3532,2.288,5.922c1.0765,1.5678,2.6453,2.3548,4.7105,2.3548
			c1.346,0,2.7357-0.6956,4.172-2.0858c0.4005-0.3882,0.7968-0.8155,1.1907-1.2667c0.8079,2.144,1.9961,4.2508,3.5856,6.3135
			c1.6617,2.153,3.6802,3.9918,6.0565,5.5185c2.3768,1.5246,5.0472,2.6448,8.0082,3.3645c2.961,0.7167,6.0565,0.807,9.2864,0.269
			c2.7803-0.538,5.4282-1.7726,7.941-3.7007c2.5108-1.9312,4.597-4.3532,6.2582-7.268c1.6591-2.9148,2.8265-6.191,3.4995-9.8255
			C843.2913,490.5367,843.2241,486.7466,842.4166,482.798z M706.6865,492.0845c-0.673,2.2433-1.5267,4.4646-2.5575,6.6617
			c-1.0323,2.2002-2.2208,4.1263-3.5662,5.7875c-1.346,1.6592-2.7823,2.4903-4.307,2.4903c-1.7962,0-3.23-0.9214-4.307-2.7592
			c-1.0765-1.8398-1.884-3.9708-2.4225-6.3928c-0.5385-2.423-0.8978-4.845-1.0765-7.268c-0.1812-2.423-0.2695-4.2167-0.2695-5.384
			c0-3.0493,0.2017-6.2582,0.6058-9.6227c0.4034-3.3645,1.0534-6.6617,1.9517-9.8927c0.8958-3.23,2.0858-6.3255,3.5662-9.2865
			c0.4575-0.9149,0.9584-1.7776,1.4802-2.6152c-0.039,0.1114-0.0865,0.2145-0.1236,0.3277c-0.677,2.0647-1.1292,4.2187-1.3546,6.46
			c-0.2268,2.2443-0.3383,4.1283-0.3383,5.653c0,2.422,0.2018,4.845,0.6058,7.268c0.4035,2.422,1.1207,4.6222,2.1535,6.5945
			c1.0303,1.9743,2.4667,3.5893,4.3065,4.845c1.8384,1.2577,4.1936,1.884,7.0663,1.884
			C707.8302,488.0927,707.3594,489.8421,706.6865,492.0845z M709.7147,477.6157c-0.0903,2.1098-0.3599,4.1514-0.8075,6.1237
			l-1.2115,0.1345c-1.7957,0-3.2531-0.7608-4.3743-2.2875c-1.1227-1.5247-1.9744-3.3414-2.557-5.4513
			c-0.5847-2.1068-0.9651-4.2397-1.1442-6.3927c-0.1807-2.153-0.269-3.9035-0.269-5.2485c0-0.7177,0.0442-1.8619,0.1345-3.4327
			c0.0883-1.5688,0.3137-3.1396,0.673-4.7105c0.3573-1.5688,0.8747-2.961,1.5477-4.1725c0.673-1.2105,1.636-1.8167,2.8937-1.8167
			c1.1648,0,2.1073,0.9425,2.8265,2.8265c0.7172,1.884,1.2552,4.038,1.615,6.46c0.3574,2.423,0.5827,4.7787,0.673,7.0662
			c0.0883,2.2885,0.1345,3.8363,0.1345,4.6432C709.8492,473.4232,709.803,475.5089,709.7147,477.6157z M812.9687,442.5555
			c-0.6479-1.7033-0.9696-3.3183-0.9696-4.845c0-0.808,0.0863-1.6822,0.263-2.6247c0.1746-0.9425,0.4146-1.8609,0.7212-2.7592
			c0.3051-0.8953,0.6985-1.6361,1.1799-2.2202c0.4818-0.5832,1.0283-0.8753,1.6426-0.8753c0.6981,0,1.1146,0.4708,1.2446,1.4133
			c0.1305,0.9425,0.1978,1.7284,0.1978,2.3557c0,2.3337-0.2018,4.6663-0.6058,6.998c-0.4035,2.3347-0.8306,4.6663-1.2783,6.999
			C814.4136,445.7414,813.6166,444.2609,812.9687,442.5555z M799.2131,486.4987c0.4501-2.0185,1.3018-3.9467,2.5575-5.7875
			c1.1885-1.7375,2.915-3.2064,5.1449-4.4252c-0.8557,2.3101-1.757,4.696-2.7209,7.1844c-1.0765,2.7823-2.1997,5.2957-3.3645,7.537
			c-0.5869,1.1282-1.1677,2.1588-1.7427,3.0935c-0.0805-0.5019-0.1516-1.0158-0.2106-1.5457
			C798.6541,490.5367,798.7654,488.5182,799.2131,486.4987z M834.5428,494.7765c-0.4938,2.691-1.325,5.1812-2.4897,7.4698
			c-1.1674,2.2875-2.7151,4.2387-4.6432,5.8547c-1.9307,1.615-4.2859,2.6448-7.0663,3.0955
			c-2.2438,0.3573-4.4415,0.2459-6.5945-0.3372c-2.1535-0.5842-4.1514-1.5036-5.9893-2.7582
			c-1.8383-1.2577-3.4323-2.7592-4.7782-4.5088c-1.3455-1.7505-2.3322-3.6114-2.961-5.5857c-0.088-0.264-0.165-0.5418-0.2446-0.8165
			c0.3997-0.5719,0.7966-1.1676,1.1885-1.8082c1.346-2.1972,2.6684-4.7105,3.9703-7.537c1.2998-2.8265,2.4667-5.6741,3.4995-8.5468
			c0.5062-1.4097,0.9786-2.7914,1.4207-4.1479c0.3729-0.0738,0.7499-0.1315,1.1348-0.1581
			c1.2998-0.0883,2.5339,0.0673,3.7012,0.4708c1.1648,0.4035,2.2208,0.9887,3.1627,1.7495c0.942,0.7639,1.6361,1.7284,2.0862,2.8938
			c0.269,0.9887,0.3363,1.9302,0.2018,2.8265c-0.1345,0.8973-0.0673,1.6612,0.2017,2.2875c0.0884,0.27,0.2906,0.5179,0.6058,0.7408
			c0.3137,0.2248,0.6941,0.2479,1.1442,0.0673c0.6263-0.3573,1.0534-0.8522,1.2783-1.4805c0.2233-0.6263,0.3578-1.3229,0.404-2.0858
			c0.0442-0.7618,0-1.4805-0.1345-2.154c-0.1345-0.6725-0.2926-1.2326-0.4713-1.6823c-0.6288-1.615-1.615-2.9379-2.961-3.9708
			c-1.346-1.0298-2.8496-1.7495-4.5088-2.153c-1.5707-0.3814-3.2018-0.4713-4.8914-0.2926
			c0.1898-0.4231,0.4063-1.0145,0.6522-1.7932c0.538-1.7043,1.1207-3.6345,1.7495-5.7875c0.6268-2.154,1.1879-4.1936,1.6823-6.1237
			c0.4924-1.9292,0.7844-3.1638,0.8748-3.7018c1.5247,2.2443,3.365,4.576,5.5185,6.999c2.1535,2.422,4.2162,4.9584,6.191,7.6042
			c1.9723,2.6478,3.6782,5.4061,5.1144,8.2767c1.4338,2.8727,2.288,5.8778,2.557,9.0175
			C835.2369,489.3925,835.0352,492.0845,834.5428,494.7765z"/>
	</g>
	<g>
		<path d="M407.3684,381.0915c6.3331-9.3877-4.7286-11.9806-6.1519-23.0543c-1.8683-14.5364-7.7422-4.6267-4.8218-9.0857
			c8.82-13.4671-11.0273-59.9975-11.0273-59.9975c23.5738,18.216,29.5029,3.6287,29.5029,3.6287
			c-41.4933-63.7388-60.5331-22.0747-60.5331-22.0747c1.3266,21.2202-18.9482,69.1739-33.8301,101.169
			c0.0163-0.0348,0.0307-0.0655,0.0408-0.0871C320.5477,371.5898,380.5023,393.7775,407.3684,381.0915z"/>
		<path d="M415.5773,391.7079c0,0-0.7269,22.6825-103.5748-2.1911c-30.6412,4.1877-51.0535,12.0135-51.0535,17.7516
			c0,8.2052,54.096-0.9935,97.2415,14.857c95.4731,35.0742,97.2414-6.6517,97.2414-14.857
			C455.4319,402.4209,439.6036,396.0835,415.5773,391.7079z"/>
		<path fill="#EF7D00" d="M415.5773,391.7079c-0.4522-0.2193-0.879-0.4377-1.2865-0.6552c-9.7344-5.1956-7.0193-9.8034-6.925-9.9572
			c0.0016-0.0026,0.0026-0.0041,0.0026-0.0041c-26.866,12.686-86.8207-9.5016-86.8207-9.5016
			c-0.01,0.0216-0.0244,0.0524-0.0408,0.0871c-0.7768,1.6541-8.5044,17.8398-8.5044,17.8398
			C414.8504,414.3905,415.5773,391.7079,415.5773,391.7079z"/>
	</g>
	<g>
		<polygon fill="#EF7D00" points="714.0261,286.6843 705.5399,274.7786 691.5945,279.1704 700.2951,267.4205 691.8089,255.5148 
			705.6724,260.1587 714.373,248.4087 714.2405,263.0287 728.1039,267.6725 714.1586,272.0644 		"/>
		<polygon fill="#EF7D00" points="823.8754,377.2688 815.3892,365.3631 801.4438,369.7549 810.1445,358.0049 801.6583,346.0992 
			815.5217,350.7431 824.2224,338.9932 824.0898,353.6132 837.9533,358.257 824.0079,362.6488 		"/>
		<polygon fill="#EF7D00" points="668.3585,242.3274 652.9142,231.1405 637.5023,242.3719 643.3691,224.2266 627.9248,213.0397 
			646.995,213.0122 652.8619,194.8669 658.7811,212.9952 677.8512,212.9677 662.4393,224.1991 		"/>
		<polygon fill="#EF7D00" points="810.7866,303.5228 797.4944,289.8483 780.3817,298.2643 789.2794,281.3971 775.9872,267.7226 
			794.7784,270.9725 803.6761,254.1053 806.392,272.9811 825.1833,276.231 808.0706,284.647 		"/>
		<polygon fill="#EF7D00" points="726.8811,420.2881 713.5061,410.6 700.1591,420.3267 705.2399,404.6125 691.8649,394.9245 
			708.38,394.9006 713.4608,379.1865 718.5869,394.8859 735.102,394.8621 721.755,404.5887 		"/>
		<polygon fill="#EF7D00" points="798.5972,425.4561 787.1996,420.4609 778.9269,429.7571 780.1556,417.3737 768.758,412.3786 
			780.9149,409.7204 782.1436,397.3371 788.4283,408.0776 800.5853,405.4195 792.3125,414.7156 		"/>
	</g>
	<path d="M582.0165,488.9433c-2.0153-14.4276-10.7529-29.1754-28.3305-47.8186c-12.444-13.198-17.3409-25.446-13.4355-33.603
		c2.9924-6.25,10.2447-8.6343,15.7188-8.2055c6.3372,0.4971,8.9764,4.4721,10.0746,7.7191
		c1.584,4.6839,0.6694,10.4686-2.0388,12.8947c-0.5865,0.5255-4.7015,3.7547-7.6057,0.598
		c-3.8729-4.2096,0.3157-8.2072,0.3157-8.2072s6.1871-4.6719,2.7779-8.3337c-3.4092-3.6619-19.6346,1.1365-17.6032,15.1335
		c0.5056,3.4839,2.3701,8.4303,10.0473,12.0063c7.5394,3.5118,14.934,2.7751,20.2878-2.0213
		c6.4562-5.7835,8.7132-16.4822,5.4886-26.0169c-3.1376-9.278-10.9063-15.2795-20.7809-16.0539
		c-5.4026-0.4233-11.0429,0.7021-15.8824,3.17c-5.3376,2.7221-9.4562,6.8705-11.9106,11.9971
		c-3.6581,7.6401-6.4979,23.9542,15.5833,47.3737c15.5023,16.4418,23.4758,29.4928,25.0932,41.0721
		c1.4738,10.5502-7.9324,33.9885-14.2346,34.1265c-4.3939,0.0961-3.1436-6.7397-2.6754-11.1097
		c0.8328-7.7741,2.1698-15.5081,1.8799-23.3211c-0.4256-11.4691-3.8646-20.14-9.2004-30.1156
		c-4.8592-9.0847-9.1166-14.5786-22.2684-26.8093c-3.2448-3.0175-6.6081-5.4334-10.7692-9.1833
		c-4.2202-3.8034-5.2847-8.0702-5.8203-11.7112c-1.118-7.6,1.2668-8.4291,5.5167-14.7177c1.8066,1.4707,3.6401,3.165,5.4337,5.114
		c0.2143,0.2328,0.5067,0.351,0.8,0.351c0.2631,0,0.527-0.0951,0.7358-0.2873c0.4417-0.4065,0.4702-1.0941,0.0637-1.5359
		c-1.9348-2.1023-3.9065-3.9185-5.8431-5.4864c0.2452-0.4045,0.4765-0.8105,0.7007-1.217c2.7137,0.9315,5.4073,2.0652,7.9082,3.4463
		c0.1666,0.0919,0.3468,0.1355,0.5245,0.1355c0.383,0,0.7543-0.2028,0.9526-0.5616c0.2901-0.5257,0.0994-1.1869-0.4261-1.4773
		c-2.538-1.4014-5.2424-2.5557-7.9591-3.5083c0.4101-0.8818,0.7734-1.7678,1.0867-2.6569c2.3838,0.2534,4.8727,0.6374,7.4274,1.1917
		c0.5872,0.127,1.1656-0.2452,1.2927-0.8321c0.1271-0.5867-0.2452-1.1653-0.832-1.2925c-2.4908-0.5403-4.9129-0.925-7.2365-1.1892
		c1.6265-6.1428,0.9763-12.4068-1.9294-18.4904c3.4994-4.5451,9.8793-13.941,7.7914-28.0926
		c-16.5691,4.3077-20.9917,13.0327-22.6375,12.2382c-1.9118-0.9227-9.743-2.6548-15.1436-2.564
		c-8.9675,0.1508-14.7659,1.6935-14.7659,1.6935c-2.7072-3.5286-8.6464-8.8258-21.6754-9.9274
		c0.708,11.3446,3.2318,19.7873,6.8629,24.7622l-0.1789,0.5719c-2.8357,7.8035-3.2671,15.1277-0.9145,21.5648
		c-2.1863,0.265-4.4668,0.6537-6.8129,1.2025c-0.5845,0.1367-0.9476,0.7214-0.8109,1.3058c0.1368,0.5847,0.721,0.9478,1.306,0.811
		c2.4798-0.5801,4.8935-0.9726,7.1991-1.2243c0.3412,0.7159,0.7177,1.4203,1.1341,2.1111c-2.7005,0.9909-5.3995,2.2102-7.9215,3.712
		c-0.5159,0.3071-0.685,0.9744-0.3778,1.49c0.2033,0.3415,0.5644,0.531,0.935,0.531c0.189,0,0.3807-0.0494,0.555-0.1533
		c2.5389-1.5116,5.2942-2.7274,8.0538-3.7048c0.7976,1.0923,1.7014,2.147,2.7081,3.164c-1.3639,1.2773-2.7365,2.6996-4.0895,4.2852
		c-0.3897,0.4565-0.3354,1.1427,0.1213,1.5322c0.2046,0.1746,0.4555,0.2602,0.705,0.2602c0.3071,0,0.6124-0.1295,0.8273-0.3814
		c1.3245-1.5523,2.6737-2.9427,4.0154-4.1876c1.3911,1.3041,2.7365,2.6769,3.732,4.297c1.8814,3.0614,2.0018,6.2111,1.6261,9.7846
		c-0.7503,7.1367-3.2302,13.9623-4.8205,20.9598c-4.0453,17.7986-2.1803,31.9346,4.9836,48.7224
		c1.9258,4.5128,4.2266,8.88,5.7215,13.5533c2.5278,7.9019,1.8869,21.2544,1.9894,29.5505v0.1147h98.344
		C581.6652,516.5102,583.4308,499.0681,582.0165,488.9433z M515.7972,353.0905c-0.0468,8.0976-5.6546,12.2177-5.6546,12.2177
		c-1.5079-4.1351-5.0892-6.1087-5.0892-6.1087C508.8232,353.6543,515.7972,353.0905,515.7972,353.0905z M459.1339,361.9371
		c0,0-4.7758-3.5183-4.8156-10.4337c0,0,5.9392,0.4818,9.1496,5.2169C463.468,356.7202,460.4181,358.4057,459.1339,361.9371z
		 M462.5759,375.2606c3.615-0.9972,6.5554-0.9204,8.9255-0.269c-3.8295,3.9868-1.7834,7.4692-0.7838,8.7289
		C463.8439,382.0515,462.5759,375.2606,462.5759,375.2606z M471.4448,383.8748c3.2847-4.1283,1.7166-7.3809,0.8361-8.6413
		c5.98,2.0657,7.9879,7.8203,7.9879,7.8203C476.651,384.1441,473.7566,384.2896,471.4448,383.8748z M484.7572,393.1049
		c-1.0018,0.0507-5.2975-1.8785-5.2594-5.2595c0.0299-2.6591,9.6813-1.89,10.1432,0
		C490.212,390.182,485.7589,393.0539,484.7572,393.1049z M489.3394,383.0538c0,0,2.1162-6.0628,8.4722-7.9759
		c-2.9887,4.6049-0.3721,7.6311,0.854,8.6955C496.2747,384.3052,493.2244,384.2246,489.3394,383.0538z M499.5681,383.5346
		c2.4268-4.9095-0.2617-7.8027-1.1978-8.6112c2.3238-0.5864,5.1794-0.6233,8.662,0.3372
		C507.0323,375.2606,505.8485,381.6006,499.5681,383.5346z"/>
</g>
</svg>
